<svg width="1035" height="745" viewBox="0 0 1035 745" fill="none" xmlns="http://www.w3.org/2000/svg">
<g clip-path="url(#clip0_543_224)">
<mask id="mask0_543_224" style="mask-type:alpha" maskUnits="userSpaceOnUse" x="70" y="145" width="485" height="597">
<path d="M130.617 539.34C217.755 636.842 150.525 656.569 229.209 719.604C313.118 786.823 423.486 683.511 488.439 595.591C573.757 480.104 578.228 323.021 491.089 225.518C403.951 128.015 246.885 117.879 149.382 205.017C51.8798 292.156 43.4782 441.837 130.617 539.34Z" fill="#FF6EC7"/>
</mask>
<g mask="url(#mask0_543_224)">
<path d="M130.615 539.34C217.753 636.842 150.523 656.569 229.208 719.603C313.116 786.823 423.485 683.511 488.437 595.591C573.755 480.104 578.226 323.02 491.088 225.518C403.949 128.015 246.883 117.879 149.381 205.017C51.8779 292.156 43.4763 441.837 130.615 539.34Z" fill="#FF4BBA"/>
<path d="M82.0413 394.571C18.6481 547.211 231.613 708.304 327.544 739.316C429.845 772.386 496.371 636.634 525.899 531.388C564.685 393.141 598.497 320.715 510.844 262.823C461.509 230.24 405.302 227.818 336.837 234.858C220.017 246.871 129.35 280.66 82.0413 394.571Z" fill="#FF8293"/>
<path d="M133 531.913C59.9765 581.855 93.486 672.531 146.927 758.021C203.917 849.188 320.469 818.525 401.057 758.086C453.731 718.583 619.186 608.099 582.932 485.304C544.402 354.799 484.056 370.597 382.203 382.764C200.117 404.515 241.133 457.96 133 531.913Z" fill="#FFB07F"/>
<g style="mix-blend-mode:lighten">
<path d="M423.841 354.178C444.837 467.231 409.031 516.854 352.995 572.308C282.981 641.595 228.705 674.226 270.342 728.292C311.979 782.359 423.485 683.511 488.437 595.591C573.755 480.104 578.227 323.02 491.088 225.518C403.95 128.015 208.818 95.653 149.381 205.017C89.9445 314.381 376.61 99.8682 423.841 354.178Z" fill="#FFE8C7" fill-opacity="0.15"/>
</g>
</g>
<path d="M481.601 590.541C565.066 477.561 568.643 325.053 484.751 231.182C400.684 137.117 248.985 127.401 155.046 211.355C61.0432 295.366 52.9432 439.673 136.954 533.676C159.197 558.565 171.895 578.833 179.515 596.392C187.151 613.988 189.502 628.47 191.48 641.08L191.535 641.433C193.494 653.926 195.069 663.972 200.464 674.752C205.873 685.562 215.472 697.708 234.523 712.97C272.392 743.307 316.647 736.109 361.478 708.534C406.342 680.941 449.407 634.118 481.601 590.541Z" stroke="black" stroke-width="17"/>
<path d="M154.526 213.091C134.374 196.391 56.3731 162.778 27.4978 161.451C-1.3776 160.124 10.3536 116.587 36.5214 124.812C50.774 128.143 73.4591 135.676 96.4158 145.488C94.3445 79.6137 135.692 -39.9493 344.997 39.0994C342.511 66.8577 295.529 131.634 125.003 158.978C147.764 170.909 167.046 184.448 173.476 197.388L154.526 213.091Z" fill="#E1E881"/>
<path d="M96.4158 145.488C94.3443 79.6141 135.692 -39.9495 344.997 39.0994C342.511 66.8577 295.529 131.634 125.003 158.978M154.526 213.091C134.374 196.391 56.3731 162.778 27.4978 161.451C-1.3776 160.124 10.3536 116.587 36.5214 124.812C71.7134 133.037 158.316 166.88 173.476 197.388L154.526 213.091Z" stroke="black" stroke-width="17"/>
<line x1="440.916" y1="352.658" x2="436.451" y2="322.051" stroke="black" stroke-width="25" stroke-linecap="round"/>
<line x1="419.026" y1="327.083" x2="464.446" y2="291.033" stroke="black" stroke-width="20" stroke-linecap="round"/>
<line x1="291.027" y1="347.161" x2="295.072" y2="377.826" stroke="black" stroke-width="25" stroke-linecap="round"/>
<line x1="304.876" y1="336.941" x2="234.179" y2="319.658" stroke="black" stroke-width="20" stroke-linecap="round"/>
<path d="M362.859 418.061C362.859 418.061 369.554 426.234 385.402 423.081C401.249 419.928 404.306 409.816 404.306 409.816" stroke="black" stroke-width="20" stroke-linecap="round"/>
<path d="M653 469.75C650.167 469.75 647.917 469.083 646.25 467.75C644.583 466.417 643.167 464.333 642 461.5L600.75 361C600.25 359.5 600 357.833 600 356C600 353 601.167 350.417 603.5 348.25C606 345.917 608.917 344.75 612.25 344.75C617.583 344.75 621.333 347.417 623.5 352.75L653 427.25L682.75 352C683.583 349.667 685 347.833 687 346.5C689.167 345.167 691.5 344.5 694 344.5C697.5 344.5 700.333 345.667 702.5 348C704.833 350.333 706 353.083 706 356.25C706 357.583 705.583 359.333 704.75 361.5L664.25 462.25C663.25 464.75 661.833 466.667 660 468C658.333 469.167 656 469.75 653 469.75Z" fill="black"/>
<path d="M738.201 334.25C735.035 334.25 732.201 333 729.701 330.5C727.368 328 726.285 325.167 726.451 322L726.701 312.75C726.868 309.583 728.118 306.833 730.451 304.5C732.785 302.167 735.535 301 738.701 301C741.868 301 744.618 302.25 746.951 304.75C749.451 307.25 750.618 310 750.451 313L750.201 322.5C750.035 325.833 748.785 328.667 746.451 331C744.285 333.167 741.535 334.25 738.201 334.25ZM736.951 469.5C733.618 469.5 730.701 468.333 728.201 466C725.868 463.5 724.701 460.583 724.701 457.25L725.951 357.75C725.951 354.417 727.118 351.583 729.451 349.25C731.951 346.75 734.868 345.5 738.201 345.5C741.701 345.5 744.618 346.75 746.951 349.25C749.285 351.583 750.451 354.417 750.451 357.75L749.201 457.25C749.201 460.583 747.951 463.5 745.451 466C743.118 468.333 740.285 469.5 736.951 469.5Z" fill="black"/>
<path d="M796.992 469.25C793.659 469.25 790.909 468.167 788.742 466C786.576 463.833 785.492 461.167 785.492 458V312.75C785.492 309.417 786.659 306.75 788.992 304.75C791.326 302.583 794.159 301.5 797.492 301.5C800.659 301.5 803.409 302.583 805.742 304.75C808.076 306.75 809.242 309.417 809.242 312.75V361.75C814.076 356.417 819.409 352.583 825.242 350.25C831.076 347.917 837.492 346.75 844.492 346.75C852.826 346.75 860.409 348.917 867.242 353.25C874.076 357.417 879.492 363.667 883.492 372C887.659 380.333 889.742 390.417 889.742 402.25C889.742 423.583 884.826 439.917 874.992 451.25C865.159 462.417 851.742 468 834.742 468C830.076 468 825.076 467.25 819.742 465.75C814.576 464.083 810.576 462.25 807.742 460.25V461.75C807.742 463.417 806.659 465.083 804.492 466.75C802.492 468.417 799.992 469.25 796.992 469.25ZM832.992 444.5C844.659 444.5 853.076 440.833 858.242 433.5C863.576 426.167 866.242 415.75 866.242 402.25C866.242 391.917 864.242 384.083 860.242 378.75C856.242 373.417 850.826 370.75 843.992 370.75C837.659 370.75 831.826 371.917 826.492 374.25C821.159 376.583 816.909 379.75 813.742 383.75C810.742 387.75 809.242 392.167 809.242 397V440.25C817.742 443.083 825.659 444.5 832.992 444.5Z" fill="black"/>
<path d="M970.84 469.5C959.007 469.5 948.34 467 938.84 462C929.507 456.833 922.173 449.583 916.84 440.25C911.507 430.75 908.84 419.583 908.84 406.75C908.84 396.25 911.173 386.25 915.84 376.75C920.673 367.083 927.34 359.333 935.84 353.5C944.507 347.667 954.34 344.75 965.34 344.75C975.507 344.75 984.173 346.833 991.34 351C998.673 355 1004.17 359.833 1007.84 365.5C1011.51 371.167 1013.34 376.25 1013.34 380.75C1013.34 382.917 1012.67 385 1011.34 387C1010.01 389 1008.09 390.75 1005.59 392.25L938.59 430.75C940.923 435.917 945.007 439.917 950.84 442.75C956.84 445.583 963.507 447 970.84 447C980.507 447 988.757 443.417 995.59 436.25C998.257 433.583 1001.01 432.25 1003.84 432.25C1007.17 432.25 1009.92 433.333 1012.09 435.5C1014.42 437.667 1015.59 440.333 1015.59 443.5C1015.59 446.167 1014.59 448.667 1012.59 451C1007.92 456.167 1001.67 460.583 993.84 464.25C986.173 467.75 978.507 469.5 970.84 469.5ZM988.59 377.75C986.59 374.25 983.757 371.667 980.09 370C976.423 368.167 972.09 367.25 967.09 367.25C957.59 367.25 949.59 370.5 943.09 377C936.757 383.5 933.09 391.5 932.09 401C931.757 403.5 931.59 406.5 931.59 410L988.59 377.75Z" fill="black"/>
<path d="M238.06 509.045H230.56V516.545V662V669.5H238.06H272.293H279.793V662V608.675L301.463 663.82L303.332 668.577H308.443H330.318H335.419L337.293 663.833L358.969 608.983V662V669.5H366.469H400.702H405.863H408.202H416.309H454.093H459.603L461.25 664.242L469.171 638.96H508.387L516.327 664.246L517.976 669.5H523.482H561.266H569.427H571.712H576.927H612.083H619.583V662V600.802L664.715 666.257L666.951 669.5H670.89H700.719H708.219V662V516.545V509.045H700.719H665.634H658.134V516.545V577.842L613.376 512.315L611.142 509.045H607.182H576.927H569.427V516.545V662V662.726L568.373 659.602L519.296 514.148L517.574 509.045H512.19H465.386H460.001L458.279 514.148L409.202 659.602L408.202 662.568V662V516.545V509.045H400.702H357.165H352.134L350.226 513.7L319.381 588.914L288.536 513.7L286.627 509.045H281.597H238.06ZM488.759 576.443L495.293 597.256H482.238L488.759 576.443ZM811.039 566.013L812.535 571.559H818.28H853.862H862.296L861.311 563.183C860.344 554.968 857.857 547.33 853.821 540.348C849.828 533.441 844.62 527.485 838.249 522.504C831.929 517.526 824.709 513.725 816.664 511.06C808.583 508.368 799.941 507.057 790.794 507.057C780.216 507.057 770.211 508.866 760.847 512.549L760.841 512.551L760.834 512.554C751.484 516.251 743.226 521.706 736.11 528.875L736.1 528.885L736.091 528.895C728.95 536.142 723.469 544.908 719.585 555.058C715.646 565.304 713.763 576.823 713.763 589.486C713.763 605.783 716.884 620.289 723.43 632.747L723.436 632.758C729.945 645.093 739.122 654.73 750.919 661.479C762.721 668.23 776.234 671.488 791.22 671.488C804.732 671.488 817.002 668.795 827.833 663.193C838.729 657.582 847.35 649.478 853.564 638.981C859.921 628.325 862.925 615.791 862.925 601.702V582.454V574.954H855.425H792.712H785.212V582.454V608.094V615.594H792.712H812.451C812.203 616.147 811.928 616.672 811.629 617.173C810.149 619.648 807.933 621.693 804.647 623.253C801.451 624.746 797.164 625.665 791.504 625.665C785.432 625.665 780.758 624.241 777.096 621.766C773.387 619.259 770.342 615.505 768.117 610.078C765.884 604.632 764.629 597.7 764.629 589.059C764.629 580.494 765.923 573.681 768.208 568.375L768.212 568.366L768.216 568.357C770.526 562.955 773.613 559.223 777.328 556.743C781.094 554.26 785.714 552.881 791.504 552.881C794.402 552.881 796.907 553.233 799.072 553.862L799.126 553.877L799.18 553.892C801.351 554.487 803.144 555.341 804.641 556.401C806.17 557.485 807.45 558.794 808.508 560.365L808.528 560.395L808.548 560.425C809.576 561.919 810.429 563.752 811.039 566.013ZM877.17 633.507L877.18 633.523L877.189 633.54C883.982 645.767 893.268 655.262 905.027 661.806C916.706 668.306 929.747 671.488 943.972 671.488C958.139 671.488 971.143 668.335 982.812 661.897C994.641 655.396 1003.96 645.888 1010.76 633.599C1017.67 621.109 1020.93 606.224 1020.93 589.273C1020.93 572.321 1017.67 557.436 1010.76 544.946C1003.97 532.66 994.644 523.153 982.818 516.652C982.816 516.651 982.814 516.65 982.812 516.649C971.143 510.21 958.139 507.057 943.972 507.057C929.758 507.057 916.725 510.21 905.049 516.655C893.269 523.159 883.975 532.666 877.182 544.946L877.176 544.957L877.17 544.968C870.317 557.453 867.083 572.33 867.083 589.273C867.083 606.172 870.318 621.024 877.17 633.507ZM957.74 556.636L957.753 556.645L957.767 556.654C961.343 559.05 964.312 562.704 966.497 568.087L966.506 568.109L966.515 568.13C968.735 573.505 969.995 580.471 969.995 589.273C969.995 598.075 968.735 605.04 966.515 610.415L966.506 610.437L966.497 610.458C964.312 615.842 961.343 619.496 957.767 621.891L957.753 621.9L957.74 621.909C954.206 624.299 949.74 625.665 943.972 625.665C938.266 625.665 933.781 624.305 930.177 621.891C926.594 619.49 923.598 615.827 921.368 610.437C919.187 605.052 917.949 598.076 917.949 589.273C917.949 580.469 919.187 573.493 921.368 568.108C923.598 562.718 926.594 559.055 930.177 556.654C933.781 554.24 938.266 552.881 943.972 552.881C949.74 552.881 954.206 554.247 957.74 556.636Z" fill="#E1E881" stroke="black" stroke-width="15"/>
<path d="M132 120C175.909 68.2497 202.334 58.9505 248.5 57.467M302 57.467C292 59.5002 281.458 57.744 275 57.7443" stroke="black" stroke-width="15" stroke-linecap="round"/>
</g>
<defs>
<clipPath id="clip0_543_224">
<rect width="1035" height="745" fill="white"/>
</clipPath>
</defs>
</svg>
